<svg width="51" height="51" viewBox="0 0 51 51" fill="none" xmlns="http://www.w3.org/2000/svg">
<path id="fa-compress" d="M25.4916 27.7142C25.4916 26.5424 24.5206 25.5714 23.3487 25.5714H8.34875C7.17687 25.5714 6.20589 26.5424 6.20589 27.7142C6.20589 28.2834 6.44026 28.8191 6.84205 29.2209L11.6635 34.0424L0.547407 45.1584C0.346514 45.3593 0.212585 45.6607 0.212585 45.9285C0.212585 46.1964 0.346514 46.4977 0.547407 46.6986L4.36437 50.5156C4.56526 50.7165 4.8666 50.8504 5.13446 50.8504C5.40232 50.8504 5.70366 50.7165 5.90455 50.5156L17.0206 39.3995L21.8421 44.2209C22.2438 44.6227 22.7796 44.8571 23.3487 44.8571C24.5206 44.8571 25.4916 43.8861 25.4916 42.7142V27.7142ZM50.7706 5.21423C50.7706 4.94638 50.6367 4.64504 50.4358 4.44414L46.6188 0.62718C46.4179 0.426286 46.1166 0.292358 45.8488 0.292358C45.5809 0.292358 45.2796 0.426286 45.0787 0.62718L33.9626 11.7433L29.1412 6.92182C28.7394 6.52004 28.2037 6.28566 27.6345 6.28566C26.4626 6.28566 25.4916 7.25664 25.4916 8.42852V23.4285C25.4916 24.6004 26.4626 25.5714 27.6345 25.5714H42.6345C43.8063 25.5714 44.7773 24.6004 44.7773 23.4285C44.7773 22.8593 44.5429 22.3236 44.1412 21.9218L39.3197 17.1004L50.4358 5.98432C50.6367 5.78343 50.7706 5.48209 50.7706 5.21423Z" fill="#E93A7D"/>
</svg>
