<svg width="126" height="20" viewBox="0 0 126 20" fill="none" xmlns="http://www.w3.org/2000/svg">
<g id="Vector">
<path d="M20.1726 3.95166C19.4605 4.25858 18.6871 4.47956 17.8891 4.5655C18.7116 4.07443 19.3377 3.30099 19.6324 2.38023C18.8712 2.83447 18.0118 3.16595 17.1156 3.33782C16.3913 2.56438 15.3601 2.08559 14.2183 2.08559C12.0208 2.08559 10.2529 3.86572 10.2529 6.05099C10.2529 6.35791 10.2897 6.66483 10.3511 6.95947C7.06095 6.7876 4.1268 5.21617 2.17479 2.80992C1.83104 3.3992 1.63461 4.07443 1.63461 4.81104C1.63461 6.18604 2.33439 7.40144 3.40247 8.11349C2.7518 8.08894 2.13796 7.90479 1.61006 7.61014C1.61006 7.62242 1.61006 7.64697 1.61006 7.65925C1.61006 9.58671 2.97278 11.1827 4.78974 11.551C4.45827 11.6369 4.10224 11.686 3.74622 11.686C3.4884 11.686 3.24287 11.6615 2.99733 11.6247C3.50068 13.1961 4.96162 14.3378 6.70492 14.3747C5.3422 15.4427 3.63572 16.0688 1.78193 16.0688C1.45046 16.0688 1.14354 16.0566 0.824341 16.0197C2.57992 17.1492 4.66698 17.7999 6.91363 17.7999C14.206 17.7999 18.196 11.7597 18.196 6.51751C18.196 6.34563 18.196 6.17376 18.1837 6.00188C18.9572 5.43715 19.6324 4.73738 20.1726 3.95166Z" fill="#151439" fill-opacity="0.4"/>
<path d="M66.3898 0.51416H54.6041C52.652 0.51416 51.0683 2.09787 51.0683 4.04988V15.8356C51.0683 17.7876 52.652 19.3713 54.6041 19.3713H61.1353V12.0666H58.68V9.2184H61.1353V7.11907C61.1353 4.68827 62.6331 3.36238 64.8061 3.36238C65.8373 3.36238 66.7335 3.43604 66.9913 3.47287V6.01416L65.4936 6.02644C64.3027 6.02644 64.0817 6.57889 64.0817 7.40144V9.2184H66.8931L66.5248 12.0666H64.0817V19.3713H66.3898C68.3418 19.3713 69.9255 17.7876 69.9255 15.8356V4.04988C69.9255 2.09787 68.3418 0.51416 66.3898 0.51416Z" fill="#151439" fill-opacity="0.4"/>
<path d="M122.619 3.10456V4.62688H116.346V3.10456H122.619ZM119.525 8.33447C121.072 8.33447 121.846 9.24296 121.981 10.7284H116.972C117.07 9.25523 118.052 8.33447 119.525 8.33447ZM119.722 15.5164C117.917 15.5164 116.972 14.4606 116.972 12.6682H125.05C125.062 12.484 125.074 12.2876 125.074 12.0912C125.074 8.77644 123.135 6.01416 119.624 6.01416C116.211 6.01416 113.89 8.58001 113.89 11.9438C113.89 15.4305 116.088 17.8244 119.624 17.8244C122.3 17.8244 124.031 16.6213 124.866 14.0555H122.153C121.858 15.013 120.655 15.5164 119.722 15.5164ZM103.332 14.9026V10.6425H107.04C108.538 10.6425 109.483 11.2686 109.483 12.8523C109.483 14.4115 108.354 14.9026 106.966 14.9026H103.332ZM103.332 8.30992V4.70054H106.524C107.752 4.70054 108.857 5.04429 108.857 6.4684C108.857 7.78202 107.997 8.30992 106.782 8.30992H103.332ZM99.9316 2.06104V17.5298H107.433C110.244 17.5298 112.884 16.1793 112.884 13.0365C112.884 11.0968 111.963 9.66037 110.06 9.12019C111.447 8.45724 112.172 7.45054 112.172 5.89139C112.172 2.80992 109.876 2.06104 107.224 2.06104H99.9316Z" fill="#151439" fill-opacity="0.4"/>
</g>
</svg>
