<svg width="71" height="23" viewBox="0 0 71 23" fill="none" xmlns="http://www.w3.org/2000/svg">
<g id="Vector">
<path d="M20.1726 5.9518C19.4605 6.25872 18.6871 6.4797 17.8891 6.56564C18.7116 6.07457 19.3377 5.30113 19.6324 4.38037C18.8712 4.83461 18.0118 5.16609 17.1156 5.33796C16.3913 4.56452 15.3601 4.08573 14.2183 4.08573C12.0208 4.08573 10.2529 5.86586 10.2529 8.05113C10.2529 8.35805 10.2897 8.66497 10.3511 8.95961C7.06095 8.78774 4.1268 7.21631 2.17479 4.81006C1.83104 5.39934 1.63461 6.07457 1.63461 6.81118C1.63461 8.18618 2.33439 9.40158 3.40247 10.1136C2.7518 10.0891 2.13796 9.90493 1.61006 9.61028C1.61006 9.62256 1.61006 9.64711 1.61006 9.65939C1.61006 11.5868 2.97278 13.1828 4.78974 13.5511C4.45827 13.6371 4.10224 13.6862 3.74622 13.6862C3.4884 13.6862 3.24287 13.6616 2.99733 13.6248C3.50068 15.1962 4.96162 16.338 6.70492 16.3748C5.3422 17.4429 3.63572 18.069 1.78193 18.069C1.45046 18.069 1.14354 18.0567 0.824341 18.0199C2.57992 19.1493 4.66698 19.8 6.91363 19.8C14.206 19.8 18.196 13.7598 18.196 8.51765C18.196 8.34577 18.196 8.1739 18.1837 8.00202C18.9572 7.43729 19.6324 6.73752 20.1726 5.9518Z" fill="#151439" fill-opacity="0.4"/>
<path d="M56.8047 19.5299C56.8047 20.598 55.8471 20.819 54.9509 20.819C54.1038 20.819 52.8393 20.6839 52.8393 19.579C52.8393 18.4864 53.9073 18.3022 54.779 18.3022C55.6138 18.3022 56.8047 18.4496 56.8047 19.5299ZM56.0803 10.261C56.0803 11.2554 55.6875 11.9429 54.6194 11.9429C53.539 11.9429 53.0971 11.3045 53.0971 10.2855C53.0971 9.25426 53.4899 8.50537 54.6194 8.50537C55.6384 8.50537 56.0803 9.34019 56.0803 10.261ZM59.3828 6.28327C58.5357 6.61475 57.6272 6.86028 56.7065 6.86028C56.0435 6.4797 55.2823 6.28327 54.5212 6.28327C52.25 6.28327 50.4698 7.96519 50.4698 10.261C50.4698 11.5009 51.2801 13.2074 52.5201 13.6248V13.6739C51.8817 13.9563 51.7466 14.7297 51.7466 15.3558C51.7466 16.0188 52.0044 16.5589 52.5692 16.9027V16.9518C51.231 17.3938 50.3348 18.2409 50.3348 19.7141C50.3348 22.2431 52.7288 22.9429 54.8281 22.9429C57.3817 22.9429 59.2846 22.0221 59.2846 19.2107C59.2846 15.7487 54.3248 17.0255 54.3248 15.1471C54.3248 14.4842 54.6808 14.2264 55.2946 14.1036C57.3326 13.723 58.6094 12.1393 58.6094 10.0645C58.6094 9.7085 58.5357 9.36475 58.4129 9.03327C58.7444 8.95961 59.0636 8.87368 59.3828 8.76319V6.28327ZM63.2868 17.0991C63.2377 16.5467 63.2377 16.0065 63.2377 15.454V7.92836C63.2377 7.42502 63.2254 6.90939 63.2868 6.40604H60.5614C60.6227 6.92167 60.6105 7.44957 60.6105 7.97747V15.454C60.6105 16.0065 60.6105 16.5467 60.5614 17.0991H63.2868ZM70.6652 14.3737C70.2723 14.6438 69.8058 14.7788 69.327 14.7788C68.4185 14.7788 68.2589 13.8949 68.2589 13.1706V8.68952H69.3024C69.6462 8.68952 70.0022 8.73863 70.3582 8.73863V6.40604H68.2589C68.2589 5.73082 68.2344 5.05559 68.3326 4.38037H65.5457C65.6071 4.7364 65.6194 5.1047 65.6194 5.47301V6.40604H64.4408V8.73863C64.6741 8.7018 64.9196 8.66497 65.1652 8.66497C65.3125 8.66497 65.4598 8.68952 65.6194 8.68952V8.73863H65.5948V13.0478C65.5948 15.1839 65.9018 17.2587 68.529 17.2587C69.2656 17.2587 70.0145 17.136 70.6652 16.7799V14.3737ZM63.5937 2.74756C63.5937 1.8268 62.9062 0.942871 61.9364 0.942871C60.9542 0.942871 60.2422 1.80225 60.2422 2.74756C60.2422 3.68059 60.9665 4.52769 61.9364 4.52769C62.8817 4.52769 63.5937 3.66832 63.5937 2.74756Z" fill="#151439" fill-opacity="0.4"/>
</g>
</svg>
