<svg width="117" height="20" viewBox="0 0 117 20" fill="none" xmlns="http://www.w3.org/2000/svg">
<g id="Socials">
<g id="Icons">
<path id="fa-twitter" d="M20.1726 3.95152C19.4605 4.25844 18.6871 4.47942 17.8891 4.56536C18.7116 4.07429 19.3377 3.30085 19.6324 2.38009C18.8712 2.83433 18.0119 3.16581 17.1157 3.33768C16.3913 2.56424 15.3601 2.08545 14.2183 2.08545C12.0208 2.08545 10.2529 3.86558 10.2529 6.05085C10.2529 6.35777 10.2898 6.66469 10.3511 6.95933C7.06096 6.78746 4.12681 5.21603 2.1748 2.80978C1.83105 3.39906 1.63462 4.07429 1.63462 4.81089C1.63462 6.18589 2.3344 7.4013 3.40248 8.11335C2.75181 8.0888 2.13797 7.90465 1.61007 7.61C1.61007 7.62228 1.61007 7.64683 1.61007 7.65911C1.61007 9.58657 2.97279 11.1825 4.78976 11.5509C4.45828 11.6368 4.10226 11.6859 3.74623 11.6859C3.48842 11.6859 3.24288 11.6613 2.99735 11.6245C3.5007 13.1959 4.96163 14.3377 6.70494 14.3745C5.34221 15.4426 3.63574 16.0687 1.78195 16.0687C1.45047 16.0687 1.14355 16.0564 0.824356 16.0196C2.57994 17.1491 4.66699 17.7997 6.91364 17.7997C14.2061 17.7997 18.196 11.7596 18.196 6.51737C18.196 6.34549 18.196 6.17362 18.1837 6.00174C18.9572 5.43701 19.6324 4.73724 20.1726 3.95152Z" fill="#151439" fill-opacity="0.4"/>
<path id="fa-facebook-square" d="M65.3898 0.51416H53.6041C51.6521 0.51416 50.0684 2.09787 50.0684 4.04988V15.8356C50.0684 17.7876 51.6521 19.3713 53.6041 19.3713H60.1353V12.0666H57.68V9.2184H60.1353V7.11907C60.1353 4.68827 61.6331 3.36238 63.8061 3.36238C64.8373 3.36238 65.7335 3.43604 65.9914 3.47287V6.01416L64.4936 6.02644C63.3027 6.02644 63.0818 6.57889 63.0818 7.40144V9.2184H65.8931L65.5248 12.0666H63.0818V19.3713H65.3898C67.3418 19.3713 68.9255 17.7876 68.9255 15.8356V4.04988C68.9255 2.09787 67.3418 0.51416 65.3898 0.51416Z" fill="#151439" fill-opacity="0.4"/>
<path id="fa-dribbble" d="M110.64 17.3579C109.67 17.763 108.614 17.9963 107.497 17.9963C105.545 17.9963 103.765 17.2965 102.365 16.1548C102.365 16.1548 102.476 16.2284 102.549 16.2898C104.096 12.926 108.872 11.2563 108.872 11.2563C108.884 11.2563 108.909 11.2441 108.921 11.2441C110.051 14.1905 110.517 16.6459 110.64 17.3579ZM108.369 9.9059C108.27 9.94273 108.16 9.96729 108.049 10.0041C108.049 10.0041 103.703 11.4037 101.506 15.32C100.229 13.8959 99.4434 12.0052 99.4434 9.94273C99.4434 9.85679 99.4434 9.77086 99.4556 9.68492C99.5907 9.68492 103.568 9.78313 107.718 8.54318C107.951 8.99742 108.172 9.45166 108.369 9.9059ZM107.055 7.30322C103.188 8.3222 99.8239 8.28537 99.6152 8.28537C100.143 5.79318 101.813 3.7184 104.059 2.6626C104.17 2.80992 105.655 4.82331 107.055 7.30322ZM115.452 11.2195C115.084 13.4662 113.807 15.4059 112.003 16.6213C111.917 16.1425 111.487 13.7731 110.431 10.8635C113.034 10.4584 115.28 11.1704 115.452 11.2195ZM105.569 2.12242C105.557 2.12242 105.545 2.1347 105.545 2.1347C105.557 2.12242 105.557 2.12242 105.569 2.12242ZM112.813 3.90255C112.788 3.93938 111.646 5.68269 108.614 6.81215C107.239 4.28313 105.717 2.28202 105.594 2.12242C106.208 1.9751 106.846 1.88916 107.497 1.88916C109.535 1.88916 111.401 2.65032 112.813 3.90255ZM115.551 9.85679C115.452 9.84452 112.715 9.24296 109.94 9.59898C109.879 9.46394 109.83 9.31662 109.768 9.18157C109.596 8.78871 109.412 8.39586 109.228 8.01528C112.408 6.71394 113.697 4.84787 113.721 4.82331C114.851 6.19831 115.526 7.95389 115.551 9.85679ZM116.926 9.94273C116.926 4.73737 112.702 0.51416 107.497 0.51416C102.292 0.51416 98.0684 4.73737 98.0684 9.94273C98.0684 15.1481 102.292 19.3713 107.497 19.3713C112.702 19.3713 116.926 15.1481 116.926 9.94273Z" fill="#151439" fill-opacity="0.4"/>
</g>
</g>
</svg>
